<svg width="32" height="32" viewBox="0 0 32 32" xmlns="http://www.w3.org/2000/svg">
  <rect width="32" height="32" rx="8" fill="#14110c"/>
  <circle cx="4.8" cy="27.8" r="1.6" fill="#c17f21" opacity="0.28"/>
  <circle cx="8.9" cy="24.2" r="1.6" fill="#c17f21" opacity="0.5"/>
  <circle cx="12.6" cy="20.4" r="1.6" fill="#c17f21" opacity="0.75"/>
  <path d="M15.6 14.2C12.7 13.5 10.6 15.4 11.4 18.4C12.6 17.5 14 17.2 15.2 17.4C14.7 16 14.8 14.9 15.6 14.2Z" fill="#c17f21"/>
  <path d="M12.6 17.4C11.1 18.7 10.4 20.8 10.9 22.9C12.1 22 13.4 21.6 14.6 21.8C14.1 20.2 14.2 18.6 14.9 17.3Z" fill="#c17f21"/>
  <path d="M10.6 22.2L9 23.9M11.4 22.8L10.6 25M12.4 22.9L12.2 25.1" stroke="#c17f21" stroke-width="1.3" stroke-linecap="round" fill="none"/>
  <path d="M11.7 18L10.5 19.4M12.4 18.3L11.8 19.9" stroke="#c17f21" stroke-width="1.2" stroke-linecap="round" fill="none"/>
  <ellipse cx="19" cy="13.6" rx="6.6" ry="4.2" transform="rotate(-24 19 13.6)" fill="#c17f21"/>
  <path d="M22.2 13.7C23.8 13.1 25.3 12.9 26.6 13.1" stroke="#c17f21" stroke-width="2" stroke-linecap="round" fill="none"/>
  <path d="M22.6 11.6C24.5 10.7 26.2 10.2 27.7 10.3" stroke="#c17f21" stroke-width="2.1" stroke-linecap="round" fill="none"/>
  <path d="M27.3 9.6C28.4 9 29.5 9.1 29.9 9.7C29.6 10.1 29.6 10.7 29.9 11.2C29.4 11.6 28.7 12 28.2 11.6C27.6 11.1 27 10.3 27.3 9.6Z" fill="#c17f21"/>
  <ellipse cx="27" cy="13.2" rx="1.1" ry="0.9" fill="#c17f21"/>
  <circle cx="23.6" cy="10.4" r="2.9" fill="#c17f21"/>
  <circle cx="22.3" cy="7.9" r="1.9" fill="#c17f21"/>
  <circle cx="25.4" cy="7.9" r="1.9" fill="#c17f21"/>
  <circle cx="22.3" cy="7.75" r="0.88" fill="#ffffff"/>
  <circle cx="25.4" cy="7.75" r="0.88" fill="#ffffff"/>
  <circle cx="22.3" cy="7.8" r="0.66" fill="#3f2c17"/>
  <circle cx="25.4" cy="7.8" r="0.66" fill="#3f2c17"/>
</svg>
